<?xml version="1.0" standalone="no"?>
<!DOCTYPE svg PUBLIC "-//W3C//DTD SVG 20010904//EN"
 "http://www.w3.org/TR/2001/REC-SVG-20010904/DTD/svg10.dtd">
<svg version="1.0" xmlns="http://www.w3.org/2000/svg"
 width="400.000000pt" height="400.000000pt" viewBox="0 0 400.000000 400.000000"
 preserveAspectRatio="xMidYMid meet">
<metadata>
Created by potrace 1.14, written by Peter Selinger 2001-2017
</metadata>
<g transform="translate(0.000000,400.000000) scale(0.100000,-0.100000)"
fill="#000000" stroke="none">
<path d="M350 3989 c-113 -22 -237 -114 -294 -218 -58 -108 -56 -33 -56 -1761
0 -958 4 -1608 10 -1643 29 -177 179 -328 355 -357 81 -13 3189 -13 3270 0
176 29 326 180 355 357 6 35 10 683 10 1638 0 1718 1 1659 -56 1764 -58 108
-183 199 -303 221 -68 13 -3226 12 -3291 -1z m2185 -1209 l110 -110 96 96 c92
92 100 97 146 101 42 5 53 1 81 -22 34 -28 49 -77 37 -117 -4 -12 -51 -67
-103 -121 l-96 -97 112 -113 112 -112 -80 -80 -80 -80 -113 113 -112 112 -95
-95 c-110 -111 -145 -128 -204 -100 -57 27 -82 94 -55 148 6 12 52 64 102 115
l92 92 -113 113 -112 112 77 78 c43 42 80 77 83 77 3 0 55 -49 115 -110z
m-1267 85 c20 -9 55 -34 78 -56 l40 -39 21 29 c54 73 199 104 283 61 98 -50
136 -180 84 -282 -9 -18 -98 -125 -197 -238 -99 -113 -183 -208 -187 -212 -3
-5 -44 36 -90 89 -47 53 -129 146 -184 207 -54 61 -109 134 -122 161 -52 109
-14 225 91 279 39 20 135 21 183 1z m1562 -1635 l0 -120 -830 0 -830 0 0 120
0 120 830 0 830 0 0 -120z"/>
</g>
</svg>
